<?xml version="1.0" encoding="UTF-8" standalone="no"?>
<!DOCTYPE svg PUBLIC "-//W3C//DTD SVG 1.1//EN"
 "http://www.w3.org/Graphics/SVG/1.1/DTD/svg11.dtd">
<!-- Generated by graphviz version 3.0.0 (20220226.1711)
 -->
<!-- Title: dependencies Pages: 1 -->
<svg width="342pt" height="174pt"
 viewBox="0.00 0.00 342.00 173.80" xmlns="http://www.w3.org/2000/svg" xmlns:xlink="http://www.w3.org/1999/xlink">
<g id="graph0" class="graph" transform="scale(1 1) rotate(0) translate(4 169.8)">
<title>dependencies</title>
<polygon fill="white" stroke="transparent" points="-4,4 -4,-169.8 338,-169.8 338,4 -4,4"/>
<text text-anchor="middle" x="167" y="-8.2" font-family="sans-serif" font-size="14.00">dependencies</text>
<g id="clust1" class="cluster">
<title>cluster_HomePageModule</title>
<polygon fill="none" stroke="black" stroke-dasharray="1,5" points="8,-32.8 8,-157.8 326,-157.8 326,-32.8 8,-32.8"/>
</g>
<g id="clust3" class="cluster">
<title>cluster_HomePageModule_imports</title>
<polygon fill="none" stroke="black" points="204,-40.8 204,-92.8 318,-92.8 318,-40.8 204,-40.8"/>
</g>
<g id="clust6" class="cluster">
<title>cluster_HomePageModule_providers</title>
<polygon fill="none" stroke="black" points="16,-40.8 16,-92.8 196,-92.8 196,-40.8 16,-40.8"/>
</g>
<!-- PrismaModule -->
<g id="node1" class="node">
<title>PrismaModule</title>
<polygon fill="#8dd3c7" stroke="black" points="310.44,-84.8 307.44,-88.8 286.44,-88.8 283.44,-84.8 211.56,-84.8 211.56,-48.8 310.44,-48.8 310.44,-84.8"/>
<text text-anchor="middle" x="261" y="-62.6" font-family="Times,serif" font-size="14.00">PrismaModule</text>
</g>
<!-- HomePageModule -->
<g id="node2" class="node">
<title>HomePageModule</title>
<polygon fill="#8dd3c7" stroke="black" points="242.48,-149.8 239.48,-153.8 218.48,-153.8 215.48,-149.8 121.52,-149.8 121.52,-113.8 242.48,-113.8 242.48,-149.8"/>
<text text-anchor="middle" x="182" y="-127.6" font-family="Times,serif" font-size="14.00">HomePageModule</text>
</g>
<!-- PrismaModule&#45;&gt;HomePageModule -->
<g id="edge1" class="edge">
<title>PrismaModule&#45;&gt;HomePageModule</title>
<path fill="none" stroke="black" d="M227.13,-84.91C227.13,-84.91 227.13,-103.79 227.13,-103.79"/>
<polygon fill="black" stroke="black" points="223.63,-103.79 227.13,-113.79 230.63,-103.79 223.63,-103.79"/>
</g>
<!-- HomePageService -->
<g id="node3" class="node">
<title>HomePageService</title>
<ellipse fill="#fdb462" stroke="black" cx="106" cy="-66.8" rx="82.23" ry="18"/>
<text text-anchor="middle" x="106" y="-62.6" font-family="Times,serif" font-size="14.00">HomePageService</text>
</g>
<!-- HomePageService&#45;&gt;HomePageModule -->
<g id="edge2" class="edge">
<title>HomePageService&#45;&gt;HomePageModule</title>
<path fill="none" stroke="black" d="M154.94,-81.55C154.94,-81.55 154.94,-103.39 154.94,-103.39"/>
<polygon fill="black" stroke="black" points="151.44,-103.39 154.94,-113.39 158.44,-103.39 151.44,-103.39"/>
</g>
</g>
</svg>
