<?xml version="1.0" encoding="UTF-8" standalone="no"?>
<!DOCTYPE svg PUBLIC "-//W3C//DTD SVG 1.1//EN"
 "http://www.w3.org/Graphics/SVG/1.1/DTD/svg11.dtd">
<!-- Generated by graphviz version 3.0.0 (20220226.1711)
 -->
<!-- Title: dependencies Pages: 1 -->
<svg width="302pt" height="174pt"
 viewBox="0.00 0.00 302.00 173.80" xmlns="http://www.w3.org/2000/svg" xmlns:xlink="http://www.w3.org/1999/xlink">
<g id="graph0" class="graph" transform="scale(1 1) rotate(0) translate(4 169.8)">
<title>dependencies</title>
<polygon fill="white" stroke="transparent" points="-4,4 -4,-169.8 298,-169.8 298,4 -4,4"/>
<text text-anchor="middle" x="147" y="-8.2" font-family="sans-serif" font-size="14.00">dependencies</text>
<g id="clust1" class="cluster">
<title>cluster_ArtistModule</title>
<polygon fill="none" stroke="black" stroke-dasharray="1,5" points="8,-32.8 8,-157.8 286,-157.8 286,-32.8 8,-32.8"/>
</g>
<g id="clust3" class="cluster">
<title>cluster_ArtistModule_imports</title>
<polygon fill="none" stroke="black" points="164,-40.8 164,-92.8 278,-92.8 278,-40.8 164,-40.8"/>
</g>
<g id="clust6" class="cluster">
<title>cluster_ArtistModule_providers</title>
<polygon fill="none" stroke="black" points="16,-40.8 16,-92.8 156,-92.8 156,-40.8 16,-40.8"/>
</g>
<!-- PrismaModule -->
<g id="node1" class="node">
<title>PrismaModule</title>
<polygon fill="#8dd3c7" stroke="black" points="270.44,-84.8 267.44,-88.8 246.44,-88.8 243.44,-84.8 171.56,-84.8 171.56,-48.8 270.44,-48.8 270.44,-84.8"/>
<text text-anchor="middle" x="221" y="-62.6" font-family="Times,serif" font-size="14.00">PrismaModule</text>
</g>
<!-- ArtistModule -->
<g id="node2" class="node">
<title>ArtistModule</title>
<polygon fill="#8dd3c7" stroke="black" points="198.94,-149.8 195.94,-153.8 174.94,-153.8 171.94,-149.8 107.06,-149.8 107.06,-113.8 198.94,-113.8 198.94,-149.8"/>
<text text-anchor="middle" x="153" y="-127.6" font-family="Times,serif" font-size="14.00">ArtistModule</text>
</g>
<!-- PrismaModule&#45;&gt;ArtistModule -->
<g id="edge1" class="edge">
<title>PrismaModule&#45;&gt;ArtistModule</title>
<path fill="none" stroke="black" d="M185.25,-84.91C185.25,-84.91 185.25,-103.79 185.25,-103.79"/>
<polygon fill="black" stroke="black" points="181.75,-103.79 185.25,-113.79 188.75,-103.79 181.75,-103.79"/>
</g>
<!-- ArtistService -->
<g id="node3" class="node">
<title>ArtistService</title>
<ellipse fill="#fdb462" stroke="black" cx="86" cy="-66.8" rx="61.98" ry="18"/>
<text text-anchor="middle" x="86" y="-62.6" font-family="Times,serif" font-size="14.00">ArtistService</text>
</g>
<!-- ArtistService&#45;&gt;ArtistModule -->
<g id="edge2" class="edge">
<title>ArtistService&#45;&gt;ArtistModule</title>
<path fill="none" stroke="black" d="M127.63,-80.27C127.63,-80.27 127.63,-103.66 127.63,-103.66"/>
<polygon fill="black" stroke="black" points="124.13,-103.66 127.63,-113.66 131.13,-103.66 124.13,-103.66"/>
</g>
</g>
</svg>
