<?xml version="1.0" encoding="UTF-8" standalone="no"?>
<!DOCTYPE svg PUBLIC "-//W3C//DTD SVG 1.1//EN"
 "http://www.w3.org/Graphics/SVG/1.1/DTD/svg11.dtd">
<!-- Generated by graphviz version 3.0.0 (20220226.1711)
 -->
<!-- Title: dependencies Pages: 1 -->
<svg width="310pt" height="174pt"
 viewBox="0.00 0.00 310.00 173.80" xmlns="http://www.w3.org/2000/svg" xmlns:xlink="http://www.w3.org/1999/xlink">
<g id="graph0" class="graph" transform="scale(1 1) rotate(0) translate(4 169.8)">
<title>dependencies</title>
<polygon fill="white" stroke="transparent" points="-4,4 -4,-169.8 306,-169.8 306,4 -4,4"/>
<text text-anchor="middle" x="151" y="-8.2" font-family="sans-serif" font-size="14.00">dependencies</text>
<g id="clust1" class="cluster">
<title>cluster_ProfileModule</title>
<polygon fill="none" stroke="black" stroke-dasharray="1,5" points="8,-32.8 8,-157.8 294,-157.8 294,-32.8 8,-32.8"/>
</g>
<g id="clust6" class="cluster">
<title>cluster_ProfileModule_providers</title>
<polygon fill="none" stroke="black" points="138,-40.8 138,-92.8 286,-92.8 286,-40.8 138,-40.8"/>
</g>
<g id="clust3" class="cluster">
<title>cluster_ProfileModule_imports</title>
<polygon fill="none" stroke="black" points="16,-40.8 16,-92.8 130,-92.8 130,-40.8 16,-40.8"/>
</g>
<!-- PrismaModule -->
<g id="node1" class="node">
<title>PrismaModule</title>
<polygon fill="#8dd3c7" stroke="black" points="122.44,-84.8 119.44,-88.8 98.44,-88.8 95.44,-84.8 23.56,-84.8 23.56,-48.8 122.44,-48.8 122.44,-84.8"/>
<text text-anchor="middle" x="73" y="-62.6" font-family="Times,serif" font-size="14.00">PrismaModule</text>
</g>
<!-- ProfileModule -->
<g id="node2" class="node">
<title>ProfileModule</title>
<polygon fill="#8dd3c7" stroke="black" points="190.66,-149.8 187.66,-153.8 166.66,-153.8 163.66,-149.8 93.34,-149.8 93.34,-113.8 190.66,-113.8 190.66,-149.8"/>
<text text-anchor="middle" x="142" y="-127.6" font-family="Times,serif" font-size="14.00">ProfileModule</text>
</g>
<!-- PrismaModule&#45;&gt;ProfileModule -->
<g id="edge1" class="edge">
<title>PrismaModule&#45;&gt;ProfileModule</title>
<path fill="none" stroke="black" d="M107.7,-84.91C107.7,-84.91 107.7,-103.79 107.7,-103.79"/>
<polygon fill="black" stroke="black" points="104.2,-103.79 107.7,-113.79 111.2,-103.79 104.2,-103.79"/>
</g>
<!-- ProfileService -->
<g id="node3" class="node">
<title>ProfileService</title>
<ellipse fill="#fdb462" stroke="black" cx="212" cy="-66.8" rx="66.05" ry="18"/>
<text text-anchor="middle" x="212" y="-62.6" font-family="Times,serif" font-size="14.00">ProfileService</text>
</g>
<!-- ProfileService&#45;&gt;ProfileModule -->
<g id="edge2" class="edge">
<title>ProfileService&#45;&gt;ProfileModule</title>
<path fill="none" stroke="black" d="M168.28,-80.58C168.28,-80.58 168.28,-103.35 168.28,-103.35"/>
<polygon fill="black" stroke="black" points="164.78,-103.35 168.28,-113.35 171.78,-103.35 164.78,-103.35"/>
</g>
</g>
</svg>
