<?xml version="1.0" encoding="UTF-8" standalone="no"?>
<!DOCTYPE svg PUBLIC "-//W3C//DTD SVG 1.1//EN"
 "http://www.w3.org/Graphics/SVG/1.1/DTD/svg11.dtd">
<!-- Generated by graphviz version 3.0.0 (20220226.1711)
 -->
<!-- Title: dependencies Pages: 1 -->
<svg width="414pt" height="174pt"
 viewBox="0.00 0.00 414.00 173.80" xmlns="http://www.w3.org/2000/svg" xmlns:xlink="http://www.w3.org/1999/xlink">
<g id="graph0" class="graph" transform="scale(1 1) rotate(0) translate(4 169.8)">
<title>dependencies</title>
<polygon fill="white" stroke="transparent" points="-4,4 -4,-169.8 410,-169.8 410,4 -4,4"/>
<text text-anchor="middle" x="203" y="-8.2" font-family="sans-serif" font-size="14.00">dependencies</text>
<g id="clust1" class="cluster">
<title>cluster_ProfileFavoriteSongModule</title>
<polygon fill="none" stroke="black" stroke-dasharray="1,5" points="8,-32.8 8,-157.8 398,-157.8 398,-32.8 8,-32.8"/>
</g>
<g id="clust3" class="cluster">
<title>cluster_ProfileFavoriteSongModule_imports</title>
<polygon fill="none" stroke="black" points="276,-40.8 276,-92.8 390,-92.8 390,-40.8 276,-40.8"/>
</g>
<g id="clust6" class="cluster">
<title>cluster_ProfileFavoriteSongModule_providers</title>
<polygon fill="none" stroke="black" points="16,-40.8 16,-92.8 268,-92.8 268,-40.8 16,-40.8"/>
</g>
<!-- PrismaModule -->
<g id="node1" class="node">
<title>PrismaModule</title>
<polygon fill="#8dd3c7" stroke="black" points="382.44,-84.8 379.44,-88.8 358.44,-88.8 355.44,-84.8 283.56,-84.8 283.56,-48.8 382.44,-48.8 382.44,-84.8"/>
<text text-anchor="middle" x="333" y="-62.6" font-family="Times,serif" font-size="14.00">PrismaModule</text>
</g>
<!-- ProfileFavoriteSongModule -->
<g id="node2" class="node">
<title>ProfileFavoriteSongModule</title>
<polygon fill="#8dd3c7" stroke="black" points="308.6,-149.8 305.6,-153.8 284.6,-153.8 281.6,-149.8 135.4,-149.8 135.4,-113.8 308.6,-113.8 308.6,-149.8"/>
<text text-anchor="middle" x="222" y="-127.6" font-family="Times,serif" font-size="14.00">ProfileFavoriteSongModule</text>
</g>
<!-- PrismaModule&#45;&gt;ProfileFavoriteSongModule -->
<g id="edge1" class="edge">
<title>PrismaModule&#45;&gt;ProfileFavoriteSongModule</title>
<path fill="none" stroke="black" d="M296.16,-84.91C296.16,-84.91 296.16,-103.79 296.16,-103.79"/>
<polygon fill="black" stroke="black" points="292.66,-103.79 296.16,-113.79 299.66,-103.79 292.66,-103.79"/>
</g>
<!-- ProfileFavoriteSongService -->
<g id="node3" class="node">
<title>ProfileFavoriteSongService</title>
<ellipse fill="#fdb462" stroke="black" cx="142" cy="-66.8" rx="118.13" ry="18"/>
<text text-anchor="middle" x="142" y="-62.6" font-family="Times,serif" font-size="14.00">ProfileFavoriteSongService</text>
</g>
<!-- ProfileFavoriteSongService&#45;&gt;ProfileFavoriteSongModule -->
<g id="edge2" class="edge">
<title>ProfileFavoriteSongService&#45;&gt;ProfileFavoriteSongModule</title>
<path fill="none" stroke="black" d="M197.88,-82.87C197.88,-82.87 197.88,-103.62 197.88,-103.62"/>
<polygon fill="black" stroke="black" points="194.38,-103.62 197.88,-113.62 201.38,-103.62 194.38,-103.62"/>
</g>
</g>
</svg>
