<?xml version="1.0" encoding="UTF-8" standalone="no"?>
<!DOCTYPE svg PUBLIC "-//W3C//DTD SVG 1.1//EN"
 "http://www.w3.org/Graphics/SVG/1.1/DTD/svg11.dtd">
<!-- Generated by graphviz version 3.0.0 (20220226.1711)
 -->
<!-- Title: dependencies Pages: 1 -->
<svg width="316pt" height="174pt"
 viewBox="0.00 0.00 316.00 173.80" xmlns="http://www.w3.org/2000/svg" xmlns:xlink="http://www.w3.org/1999/xlink">
<g id="graph0" class="graph" transform="scale(1 1) rotate(0) translate(4 169.8)">
<title>dependencies</title>
<polygon fill="white" stroke="transparent" points="-4,4 -4,-169.8 312,-169.8 312,4 -4,4"/>
<text text-anchor="middle" x="154" y="-8.2" font-family="sans-serif" font-size="14.00">dependencies</text>
<g id="clust1" class="cluster">
<title>cluster_PlaylistModule</title>
<polygon fill="none" stroke="black" stroke-dasharray="1,5" points="8,-32.8 8,-157.8 300,-157.8 300,-32.8 8,-32.8"/>
</g>
<g id="clust6" class="cluster">
<title>cluster_PlaylistModule_providers</title>
<polygon fill="none" stroke="black" points="138,-40.8 138,-92.8 292,-92.8 292,-40.8 138,-40.8"/>
</g>
<g id="clust3" class="cluster">
<title>cluster_PlaylistModule_imports</title>
<polygon fill="none" stroke="black" points="16,-40.8 16,-92.8 130,-92.8 130,-40.8 16,-40.8"/>
</g>
<!-- PrismaModule -->
<g id="node1" class="node">
<title>PrismaModule</title>
<polygon fill="#8dd3c7" stroke="black" points="122.44,-84.8 119.44,-88.8 98.44,-88.8 95.44,-84.8 23.56,-84.8 23.56,-48.8 122.44,-48.8 122.44,-84.8"/>
<text text-anchor="middle" x="73" y="-62.6" font-family="Times,serif" font-size="14.00">PrismaModule</text>
</g>
<!-- PlaylistModule -->
<g id="node2" class="node">
<title>PlaylistModule</title>
<polygon fill="#8dd3c7" stroke="black" points="194.56,-149.8 191.56,-153.8 170.56,-153.8 167.56,-149.8 93.44,-149.8 93.44,-113.8 194.56,-113.8 194.56,-149.8"/>
<text text-anchor="middle" x="144" y="-127.6" font-family="Times,serif" font-size="14.00">PlaylistModule</text>
</g>
<!-- PrismaModule&#45;&gt;PlaylistModule -->
<g id="edge1" class="edge">
<title>PrismaModule&#45;&gt;PlaylistModule</title>
<path fill="none" stroke="black" d="M107.72,-84.91C107.72,-84.91 107.72,-103.79 107.72,-103.79"/>
<polygon fill="black" stroke="black" points="104.22,-103.79 107.72,-113.79 111.22,-103.79 104.22,-103.79"/>
</g>
<!-- PlaylistService -->
<g id="node3" class="node">
<title>PlaylistService</title>
<ellipse fill="#fdb462" stroke="black" cx="215" cy="-66.8" rx="68.94" ry="18"/>
<text text-anchor="middle" x="215" y="-62.6" font-family="Times,serif" font-size="14.00">PlaylistService</text>
</g>
<!-- PlaylistService&#45;&gt;PlaylistModule -->
<g id="edge2" class="edge">
<title>PlaylistService&#45;&gt;PlaylistModule</title>
<path fill="none" stroke="black" d="M170.41,-80.58C170.41,-80.58 170.41,-103.35 170.41,-103.35"/>
<polygon fill="black" stroke="black" points="166.91,-103.35 170.41,-113.35 173.91,-103.35 166.91,-103.35"/>
</g>
</g>
</svg>
