<?xml version="1.0" encoding="UTF-8" standalone="no"?>
<!DOCTYPE svg PUBLIC "-//W3C//DTD SVG 1.1//EN"
 "http://www.w3.org/Graphics/SVG/1.1/DTD/svg11.dtd">
<!-- Generated by graphviz version 3.0.0 (20220226.1711)
 -->
<!-- Title: dependencies Pages: 1 -->
<svg width="1756pt" height="174pt"
 viewBox="0.00 0.00 1756.00 173.80" xmlns="http://www.w3.org/2000/svg" xmlns:xlink="http://www.w3.org/1999/xlink">
<g id="graph0" class="graph" transform="scale(1 1) rotate(0) translate(4 169.8)">
<title>dependencies</title>
<polygon fill="white" stroke="transparent" points="-4,4 -4,-169.8 1752,-169.8 1752,4 -4,4"/>
<text text-anchor="middle" x="874" y="-8.2" font-family="sans-serif" font-size="14.00">dependencies</text>
<g id="clust1" class="cluster">
<title>cluster_AppModule</title>
<polygon fill="none" stroke="black" stroke-dasharray="1,5" points="8,-32.8 8,-157.8 1740,-157.8 1740,-32.8 8,-32.8"/>
</g>
<g id="clust6" class="cluster">
<title>cluster_AppModule_providers</title>
<polygon fill="none" stroke="black" points="1602,-40.8 1602,-92.8 1732,-92.8 1732,-40.8 1602,-40.8"/>
</g>
<g id="clust3" class="cluster">
<title>cluster_AppModule_imports</title>
<polygon fill="none" stroke="black" points="16,-40.8 16,-92.8 1594,-92.8 1594,-40.8 16,-40.8"/>
</g>
<!-- AdminModule -->
<g id="node1" class="node">
<title>AdminModule</title>
<polygon fill="#8dd3c7" stroke="black" points="1586.44,-84.8 1583.44,-88.8 1562.44,-88.8 1559.44,-84.8 1487.56,-84.8 1487.56,-48.8 1586.44,-48.8 1586.44,-84.8"/>
<text text-anchor="middle" x="1537" y="-62.6" font-family="Times,serif" font-size="14.00">AdminModule</text>
</g>
<!-- AppModule -->
<g id="node14" class="node">
<title>AppModule</title>
<polygon fill="#8dd3c7" stroke="black" points="938.66,-149.8 935.66,-153.8 914.66,-153.8 911.66,-149.8 855.34,-149.8 855.34,-113.8 938.66,-113.8 938.66,-149.8"/>
<text text-anchor="middle" x="897" y="-127.6" font-family="Times,serif" font-size="14.00">AppModule</text>
</g>
<!-- AdminModule&#45;&gt;AppModule -->
<g id="edge1" class="edge">
<title>AdminModule&#45;&gt;AppModule</title>
<path fill="none" stroke="black" d="M1537,-84.84C1537,-106.46 1537,-139.8 1537,-139.8 1537,-139.8 948.99,-139.8 948.99,-139.8"/>
<polygon fill="black" stroke="black" points="948.99,-136.3 938.99,-139.8 948.99,-143.3 948.99,-136.3"/>
</g>
<!-- AlbumModule -->
<g id="node2" class="node">
<title>AlbumModule</title>
<polygon fill="#8dd3c7" stroke="black" points="1470.44,-84.8 1467.44,-88.8 1446.44,-88.8 1443.44,-84.8 1371.56,-84.8 1371.56,-48.8 1470.44,-48.8 1470.44,-84.8"/>
<text text-anchor="middle" x="1421" y="-62.6" font-family="Times,serif" font-size="14.00">AlbumModule</text>
</g>
<!-- AlbumModule&#45;&gt;AppModule -->
<g id="edge2" class="edge">
<title>AlbumModule&#45;&gt;AppModule</title>
<path fill="none" stroke="black" d="M1421,-85.02C1421,-105.17 1421,-134.8 1421,-134.8 1421,-134.8 949,-134.8 949,-134.8"/>
<polygon fill="black" stroke="black" points="949,-131.3 939,-134.8 949,-138.3 949,-131.3"/>
</g>
<!-- ArtistModule -->
<g id="node3" class="node">
<title>ArtistModule</title>
<polygon fill="#8dd3c7" stroke="black" points="1353.94,-84.8 1350.94,-88.8 1329.94,-88.8 1326.94,-84.8 1262.06,-84.8 1262.06,-48.8 1353.94,-48.8 1353.94,-84.8"/>
<text text-anchor="middle" x="1308" y="-62.6" font-family="Times,serif" font-size="14.00">ArtistModule</text>
</g>
<!-- ArtistModule&#45;&gt;AppModule -->
<g id="edge3" class="edge">
<title>ArtistModule&#45;&gt;AppModule</title>
<path fill="none" stroke="black" d="M1308,-85.02C1308,-103.63 1308,-129.8 1308,-129.8 1308,-129.8 948.67,-129.8 948.67,-129.8"/>
<polygon fill="black" stroke="black" points="948.67,-126.3 938.67,-129.8 948.67,-133.3 948.67,-126.3"/>
</g>
<!-- AuthModule -->
<g id="node4" class="node">
<title>AuthModule</title>
<polygon fill="#8dd3c7" stroke="black" points="1244.55,-84.8 1241.55,-88.8 1220.55,-88.8 1217.55,-84.8 1157.45,-84.8 1157.45,-48.8 1244.55,-48.8 1244.55,-84.8"/>
<text text-anchor="middle" x="1201" y="-62.6" font-family="Times,serif" font-size="14.00">AuthModule</text>
</g>
<!-- AuthModule&#45;&gt;AppModule -->
<g id="edge4" class="edge">
<title>AuthModule&#45;&gt;AppModule</title>
<path fill="none" stroke="black" d="M1201,-84.83C1201,-101.86 1201,-124.8 1201,-124.8 1201,-124.8 948.95,-124.8 948.95,-124.8"/>
<polygon fill="black" stroke="black" points="948.95,-121.3 938.95,-124.8 948.95,-128.3 948.95,-121.3"/>
</g>
<!-- CategoryModule -->
<g id="node5" class="node">
<title>CategoryModule</title>
<polygon fill="#8dd3c7" stroke="black" points="1139.37,-84.8 1136.37,-88.8 1115.37,-88.8 1112.37,-84.8 1028.63,-84.8 1028.63,-48.8 1139.37,-48.8 1139.37,-84.8"/>
<text text-anchor="middle" x="1084" y="-62.6" font-family="Times,serif" font-size="14.00">CategoryModule</text>
</g>
<!-- CategoryModule&#45;&gt;AppModule -->
<g id="edge5" class="edge">
<title>CategoryModule&#45;&gt;AppModule</title>
<path fill="none" stroke="black" d="M1084,-85.04C1084,-100.37 1084,-119.8 1084,-119.8 1084,-119.8 948.97,-119.8 948.97,-119.8"/>
<polygon fill="black" stroke="black" points="948.97,-116.3 938.97,-119.8 948.97,-123.3 948.97,-116.3"/>
</g>
<!-- CountryModule -->
<g id="node6" class="node">
<title>CountryModule</title>
<polygon fill="#8dd3c7" stroke="black" points="1010.94,-84.8 1007.94,-88.8 986.94,-88.8 983.94,-84.8 905.06,-84.8 905.06,-48.8 1010.94,-48.8 1010.94,-84.8"/>
<text text-anchor="middle" x="958" y="-62.6" font-family="Times,serif" font-size="14.00">CountryModule</text>
</g>
<!-- CountryModule&#45;&gt;AppModule -->
<g id="edge6" class="edge">
<title>CountryModule&#45;&gt;AppModule</title>
<path fill="none" stroke="black" d="M922.06,-84.91C922.06,-84.91 922.06,-103.79 922.06,-103.79"/>
<polygon fill="black" stroke="black" points="918.56,-103.79 922.06,-113.79 925.56,-103.79 918.56,-103.79"/>
</g>
<!-- PlaylistModule -->
<g id="node7" class="node">
<title>PlaylistModule</title>
<polygon fill="#8dd3c7" stroke="black" points="886.56,-84.8 883.56,-88.8 862.56,-88.8 859.56,-84.8 785.44,-84.8 785.44,-48.8 886.56,-48.8 886.56,-84.8"/>
<text text-anchor="middle" x="836" y="-62.6" font-family="Times,serif" font-size="14.00">PlaylistModule</text>
</g>
<!-- PlaylistModule&#45;&gt;AppModule -->
<g id="edge7" class="edge">
<title>PlaylistModule&#45;&gt;AppModule</title>
<path fill="none" stroke="black" d="M870.97,-84.91C870.97,-84.91 870.97,-103.79 870.97,-103.79"/>
<polygon fill="black" stroke="black" points="867.47,-103.79 870.97,-113.79 874.47,-103.79 867.47,-103.79"/>
</g>
<!-- PrismaModule -->
<g id="node8" class="node">
<title>PrismaModule</title>
<polygon fill="#8dd3c7" stroke="black" points="767.44,-84.8 764.44,-88.8 743.44,-88.8 740.44,-84.8 668.56,-84.8 668.56,-48.8 767.44,-48.8 767.44,-84.8"/>
<text text-anchor="middle" x="718" y="-62.6" font-family="Times,serif" font-size="14.00">PrismaModule</text>
</g>
<!-- PrismaModule&#45;&gt;AppModule -->
<g id="edge8" class="edge">
<title>PrismaModule&#45;&gt;AppModule</title>
<path fill="none" stroke="black" d="M718,-85.04C718,-100.37 718,-119.8 718,-119.8 718,-119.8 845.03,-119.8 845.03,-119.8"/>
<polygon fill="black" stroke="black" points="845.03,-123.3 855.03,-119.8 845.03,-116.3 845.03,-123.3"/>
</g>
<!-- ProfileFavoriteSongModule -->
<g id="node9" class="node">
<title>ProfileFavoriteSongModule</title>
<polygon fill="#8dd3c7" stroke="black" points="650.6,-84.8 647.6,-88.8 626.6,-88.8 623.6,-84.8 477.4,-84.8 477.4,-48.8 650.6,-48.8 650.6,-84.8"/>
<text text-anchor="middle" x="564" y="-62.6" font-family="Times,serif" font-size="14.00">ProfileFavoriteSongModule</text>
</g>
<!-- ProfileFavoriteSongModule&#45;&gt;AppModule -->
<g id="edge9" class="edge">
<title>ProfileFavoriteSongModule&#45;&gt;AppModule</title>
<path fill="none" stroke="black" d="M564,-84.83C564,-101.86 564,-124.8 564,-124.8 564,-124.8 845.16,-124.8 845.16,-124.8"/>
<polygon fill="black" stroke="black" points="845.16,-128.3 855.16,-124.8 845.16,-121.3 845.16,-128.3"/>
</g>
<!-- ProfileModule -->
<g id="node10" class="node">
<title>ProfileModule</title>
<polygon fill="#8dd3c7" stroke="black" points="459.66,-84.8 456.66,-88.8 435.66,-88.8 432.66,-84.8 362.34,-84.8 362.34,-48.8 459.66,-48.8 459.66,-84.8"/>
<text text-anchor="middle" x="411" y="-62.6" font-family="Times,serif" font-size="14.00">ProfileModule</text>
</g>
<!-- ProfileModule&#45;&gt;AppModule -->
<g id="edge10" class="edge">
<title>ProfileModule&#45;&gt;AppModule</title>
<path fill="none" stroke="black" d="M411,-85.02C411,-103.63 411,-129.8 411,-129.8 411,-129.8 845.14,-129.8 845.14,-129.8"/>
<polygon fill="black" stroke="black" points="845.14,-133.3 855.14,-129.8 845.14,-126.3 845.14,-133.3"/>
</g>
<!-- SongModule -->
<g id="node11" class="node">
<title>SongModule</title>
<polygon fill="#8dd3c7" stroke="black" points="344.34,-84.8 341.34,-88.8 320.34,-88.8 317.34,-84.8 255.66,-84.8 255.66,-48.8 344.34,-48.8 344.34,-84.8"/>
<text text-anchor="middle" x="300" y="-62.6" font-family="Times,serif" font-size="14.00">SongModule</text>
</g>
<!-- SongModule&#45;&gt;AppModule -->
<g id="edge11" class="edge">
<title>SongModule&#45;&gt;AppModule</title>
<path fill="none" stroke="black" d="M300,-85.02C300,-105.17 300,-134.8 300,-134.8 300,-134.8 845.02,-134.8 845.02,-134.8"/>
<polygon fill="black" stroke="black" points="845.02,-138.3 855.02,-134.8 845.02,-131.3 845.02,-138.3"/>
</g>
<!-- UserModule -->
<g id="node12" class="node">
<title>UserModule</title>
<polygon fill="#8dd3c7" stroke="black" points="237.99,-84.8 234.99,-88.8 213.99,-88.8 210.99,-84.8 152.01,-84.8 152.01,-48.8 237.99,-48.8 237.99,-84.8"/>
<text text-anchor="middle" x="195" y="-62.6" font-family="Times,serif" font-size="14.00">UserModule</text>
</g>
<!-- UserModule&#45;&gt;AppModule -->
<g id="edge12" class="edge">
<title>UserModule&#45;&gt;AppModule</title>
<path fill="none" stroke="black" d="M195,-84.84C195,-106.46 195,-139.8 195,-139.8 195,-139.8 845.19,-139.8 845.19,-139.8"/>
<polygon fill="black" stroke="black" points="845.19,-143.3 855.19,-139.8 845.19,-136.3 845.19,-143.3"/>
</g>
<!-- UserPlanModule -->
<g id="node13" class="node">
<title>UserPlanModule</title>
<polygon fill="#8dd3c7" stroke="black" points="134.38,-84.8 131.38,-88.8 110.38,-88.8 107.38,-84.8 23.62,-84.8 23.62,-48.8 134.38,-48.8 134.38,-84.8"/>
<text text-anchor="middle" x="79" y="-62.6" font-family="Times,serif" font-size="14.00">UserPlanModule</text>
</g>
<!-- UserPlanModule&#45;&gt;AppModule -->
<g id="edge13" class="edge">
<title>UserPlanModule&#45;&gt;AppModule</title>
<path fill="none" stroke="black" d="M79,-84.89C79,-107.93 79,-144.8 79,-144.8 79,-144.8 845.31,-144.8 845.31,-144.8"/>
<polygon fill="black" stroke="black" points="845.31,-148.3 855.31,-144.8 845.31,-141.3 845.31,-148.3"/>
</g>
<!-- AppService -->
<g id="node15" class="node">
<title>AppService</title>
<ellipse fill="#fdb462" stroke="black" cx="1667" cy="-66.8" rx="56.75" ry="18"/>
<text text-anchor="middle" x="1667" y="-62.6" font-family="Times,serif" font-size="14.00">AppService</text>
</g>
<!-- AppService&#45;&gt;AppModule -->
<g id="edge14" class="edge">
<title>AppService&#45;&gt;AppModule</title>
<path fill="none" stroke="black" d="M1667,-84.89C1667,-107.93 1667,-144.8 1667,-144.8 1667,-144.8 948.67,-144.8 948.67,-144.8"/>
<polygon fill="black" stroke="black" points="948.67,-141.3 938.67,-144.8 948.67,-148.3 948.67,-141.3"/>
</g>
</g>
</svg>
