<?xml version="1.0" encoding="UTF-8" standalone="no"?>
<!DOCTYPE svg PUBLIC "-//W3C//DTD SVG 1.1//EN"
 "http://www.w3.org/Graphics/SVG/1.1/DTD/svg11.dtd">
<!-- Generated by graphviz version 3.0.0 (20220226.1711)
 -->
<!-- Title: dependencies Pages: 1 -->
<svg width="1894pt" height="174pt"
 viewBox="0.00 0.00 1894.00 173.80" xmlns="http://www.w3.org/2000/svg" xmlns:xlink="http://www.w3.org/1999/xlink">
<g id="graph0" class="graph" transform="scale(1 1) rotate(0) translate(4 169.8)">
<title>dependencies</title>
<polygon fill="white" stroke="transparent" points="-4,4 -4,-169.8 1890,-169.8 1890,4 -4,4"/>
<text text-anchor="middle" x="943" y="-8.2" font-family="sans-serif" font-size="14.00">dependencies</text>
<g id="clust1" class="cluster">
<title>cluster_AppModule</title>
<polygon fill="none" stroke="black" stroke-dasharray="1,5" points="8,-32.8 8,-157.8 1878,-157.8 1878,-32.8 8,-32.8"/>
</g>
<g id="clust6" class="cluster">
<title>cluster_AppModule_providers</title>
<polygon fill="none" stroke="black" points="1740,-40.8 1740,-92.8 1870,-92.8 1870,-40.8 1740,-40.8"/>
</g>
<g id="clust3" class="cluster">
<title>cluster_AppModule_imports</title>
<polygon fill="none" stroke="black" points="16,-40.8 16,-92.8 1732,-92.8 1732,-40.8 16,-40.8"/>
</g>
<!-- AdminModule -->
<g id="node1" class="node">
<title>AdminModule</title>
<polygon fill="#8dd3c7" stroke="black" points="1724.44,-84.8 1721.44,-88.8 1700.44,-88.8 1697.44,-84.8 1625.56,-84.8 1625.56,-48.8 1724.44,-48.8 1724.44,-84.8"/>
<text text-anchor="middle" x="1675" y="-62.6" font-family="Times,serif" font-size="14.00">AdminModule</text>
</g>
<!-- AppModule -->
<g id="node15" class="node">
<title>AppModule</title>
<polygon fill="#8dd3c7" stroke="black" points="1006.66,-149.8 1003.66,-153.8 982.66,-153.8 979.66,-149.8 923.34,-149.8 923.34,-113.8 1006.66,-113.8 1006.66,-149.8"/>
<text text-anchor="middle" x="965" y="-127.6" font-family="Times,serif" font-size="14.00">AppModule</text>
</g>
<!-- AdminModule&#45;&gt;AppModule -->
<g id="edge1" class="edge">
<title>AdminModule&#45;&gt;AppModule</title>
<path fill="none" stroke="black" d="M1675,-85.09C1675,-107.01 1675,-140.8 1675,-140.8 1675,-140.8 1016.76,-140.8 1016.76,-140.8"/>
<polygon fill="black" stroke="black" points="1016.76,-137.3 1006.76,-140.8 1016.76,-144.3 1016.76,-137.3"/>
</g>
<!-- AlbumModule -->
<g id="node2" class="node">
<title>AlbumModule</title>
<polygon fill="#8dd3c7" stroke="black" points="1608.44,-84.8 1605.44,-88.8 1584.44,-88.8 1581.44,-84.8 1509.56,-84.8 1509.56,-48.8 1608.44,-48.8 1608.44,-84.8"/>
<text text-anchor="middle" x="1559" y="-62.6" font-family="Times,serif" font-size="14.00">AlbumModule</text>
</g>
<!-- AlbumModule&#45;&gt;AppModule -->
<g id="edge2" class="edge">
<title>AlbumModule&#45;&gt;AppModule</title>
<path fill="none" stroke="black" d="M1559,-84.83C1559,-105.57 1559,-136.8 1559,-136.8 1559,-136.8 1016.77,-136.8 1016.77,-136.8"/>
<polygon fill="black" stroke="black" points="1016.77,-133.3 1006.77,-136.8 1016.77,-140.3 1016.77,-133.3"/>
</g>
<!-- ArtistModule -->
<g id="node3" class="node">
<title>ArtistModule</title>
<polygon fill="#8dd3c7" stroke="black" points="1491.94,-84.8 1488.94,-88.8 1467.94,-88.8 1464.94,-84.8 1400.06,-84.8 1400.06,-48.8 1491.94,-48.8 1491.94,-84.8"/>
<text text-anchor="middle" x="1446" y="-62.6" font-family="Times,serif" font-size="14.00">ArtistModule</text>
</g>
<!-- ArtistModule&#45;&gt;AppModule -->
<g id="edge3" class="edge">
<title>ArtistModule&#45;&gt;AppModule</title>
<path fill="none" stroke="black" d="M1446,-84.91C1446,-104.14 1446,-131.8 1446,-131.8 1446,-131.8 1016.84,-131.8 1016.84,-131.8"/>
<polygon fill="black" stroke="black" points="1016.84,-128.3 1006.84,-131.8 1016.84,-135.3 1016.84,-128.3"/>
</g>
<!-- AuthModule -->
<g id="node4" class="node">
<title>AuthModule</title>
<polygon fill="#8dd3c7" stroke="black" points="1382.55,-84.8 1379.55,-88.8 1358.55,-88.8 1355.55,-84.8 1295.45,-84.8 1295.45,-48.8 1382.55,-48.8 1382.55,-84.8"/>
<text text-anchor="middle" x="1339" y="-62.6" font-family="Times,serif" font-size="14.00">AuthModule</text>
</g>
<!-- AuthModule&#45;&gt;AppModule -->
<g id="edge4" class="edge">
<title>AuthModule&#45;&gt;AppModule</title>
<path fill="none" stroke="black" d="M1339,-85.1C1339,-103.07 1339,-127.8 1339,-127.8 1339,-127.8 1016.81,-127.8 1016.81,-127.8"/>
<polygon fill="black" stroke="black" points="1016.81,-124.3 1006.81,-127.8 1016.81,-131.3 1016.81,-124.3"/>
</g>
<!-- CategoryModule -->
<g id="node5" class="node">
<title>CategoryModule</title>
<polygon fill="#8dd3c7" stroke="black" points="1277.37,-84.8 1274.37,-88.8 1253.37,-88.8 1250.37,-84.8 1166.63,-84.8 1166.63,-48.8 1277.37,-48.8 1277.37,-84.8"/>
<text text-anchor="middle" x="1222" y="-62.6" font-family="Times,serif" font-size="14.00">CategoryModule</text>
</g>
<!-- CategoryModule&#45;&gt;AppModule -->
<g id="edge5" class="edge">
<title>CategoryModule&#45;&gt;AppModule</title>
<path fill="none" stroke="black" d="M1222,-84.83C1222,-101.2 1222,-122.8 1222,-122.8 1222,-122.8 1016.86,-122.8 1016.86,-122.8"/>
<polygon fill="black" stroke="black" points="1016.86,-119.3 1006.86,-122.8 1016.86,-126.3 1016.86,-119.3"/>
</g>
<!-- CountryModule -->
<g id="node6" class="node">
<title>CountryModule</title>
<polygon fill="#8dd3c7" stroke="black" points="1148.94,-84.8 1145.94,-88.8 1124.94,-88.8 1121.94,-84.8 1043.06,-84.8 1043.06,-48.8 1148.94,-48.8 1148.94,-84.8"/>
<text text-anchor="middle" x="1096" y="-62.6" font-family="Times,serif" font-size="14.00">CountryModule</text>
</g>
<!-- CountryModule&#45;&gt;AppModule -->
<g id="edge6" class="edge">
<title>CountryModule&#45;&gt;AppModule</title>
<path fill="none" stroke="black" d="M1096,-84.99C1096,-99.98 1096,-118.8 1096,-118.8 1096,-118.8 1016.81,-118.8 1016.81,-118.8"/>
<polygon fill="black" stroke="black" points="1016.81,-115.3 1006.81,-118.8 1016.81,-122.3 1016.81,-115.3"/>
</g>
<!-- HomePageModule -->
<g id="node7" class="node">
<title>HomePageModule</title>
<polygon fill="#8dd3c7" stroke="black" points="1025.48,-84.8 1022.48,-88.8 1001.48,-88.8 998.48,-84.8 904.52,-84.8 904.52,-48.8 1025.48,-48.8 1025.48,-84.8"/>
<text text-anchor="middle" x="965" y="-62.6" font-family="Times,serif" font-size="14.00">HomePageModule</text>
</g>
<!-- HomePageModule&#45;&gt;AppModule -->
<g id="edge7" class="edge">
<title>HomePageModule&#45;&gt;AppModule</title>
<path fill="none" stroke="black" d="M965,-84.91C965,-84.91 965,-103.79 965,-103.79"/>
<polygon fill="black" stroke="black" points="961.5,-103.79 965,-113.79 968.5,-103.79 961.5,-103.79"/>
</g>
<!-- PlaylistModule -->
<g id="node8" class="node">
<title>PlaylistModule</title>
<polygon fill="#8dd3c7" stroke="black" points="886.56,-84.8 883.56,-88.8 862.56,-88.8 859.56,-84.8 785.44,-84.8 785.44,-48.8 886.56,-48.8 886.56,-84.8"/>
<text text-anchor="middle" x="836" y="-62.6" font-family="Times,serif" font-size="14.00">PlaylistModule</text>
</g>
<!-- PlaylistModule&#45;&gt;AppModule -->
<g id="edge8" class="edge">
<title>PlaylistModule&#45;&gt;AppModule</title>
<path fill="none" stroke="black" d="M836,-84.99C836,-99.98 836,-118.8 836,-118.8 836,-118.8 913.12,-118.8 913.12,-118.8"/>
<polygon fill="black" stroke="black" points="913.12,-122.3 923.12,-118.8 913.12,-115.3 913.12,-122.3"/>
</g>
<!-- PrismaModule -->
<g id="node9" class="node">
<title>PrismaModule</title>
<polygon fill="#8dd3c7" stroke="black" points="767.44,-84.8 764.44,-88.8 743.44,-88.8 740.44,-84.8 668.56,-84.8 668.56,-48.8 767.44,-48.8 767.44,-84.8"/>
<text text-anchor="middle" x="718" y="-62.6" font-family="Times,serif" font-size="14.00">PrismaModule</text>
</g>
<!-- PrismaModule&#45;&gt;AppModule -->
<g id="edge9" class="edge">
<title>PrismaModule&#45;&gt;AppModule</title>
<path fill="none" stroke="black" d="M718,-84.83C718,-101.2 718,-122.8 718,-122.8 718,-122.8 913.1,-122.8 913.1,-122.8"/>
<polygon fill="black" stroke="black" points="913.1,-126.3 923.1,-122.8 913.1,-119.3 913.1,-126.3"/>
</g>
<!-- ProfileFavoriteSongModule -->
<g id="node10" class="node">
<title>ProfileFavoriteSongModule</title>
<polygon fill="#8dd3c7" stroke="black" points="650.6,-84.8 647.6,-88.8 626.6,-88.8 623.6,-84.8 477.4,-84.8 477.4,-48.8 650.6,-48.8 650.6,-84.8"/>
<text text-anchor="middle" x="564" y="-62.6" font-family="Times,serif" font-size="14.00">ProfileFavoriteSongModule</text>
</g>
<!-- ProfileFavoriteSongModule&#45;&gt;AppModule -->
<g id="edge10" class="edge">
<title>ProfileFavoriteSongModule&#45;&gt;AppModule</title>
<path fill="none" stroke="black" d="M564,-85.1C564,-103.07 564,-127.8 564,-127.8 564,-127.8 913.22,-127.8 913.22,-127.8"/>
<polygon fill="black" stroke="black" points="913.22,-131.3 923.22,-127.8 913.22,-124.3 913.22,-131.3"/>
</g>
<!-- ProfileModule -->
<g id="node11" class="node">
<title>ProfileModule</title>
<polygon fill="#8dd3c7" stroke="black" points="459.66,-84.8 456.66,-88.8 435.66,-88.8 432.66,-84.8 362.34,-84.8 362.34,-48.8 459.66,-48.8 459.66,-84.8"/>
<text text-anchor="middle" x="411" y="-62.6" font-family="Times,serif" font-size="14.00">ProfileModule</text>
</g>
<!-- ProfileModule&#45;&gt;AppModule -->
<g id="edge11" class="edge">
<title>ProfileModule&#45;&gt;AppModule</title>
<path fill="none" stroke="black" d="M411,-84.91C411,-104.14 411,-131.8 411,-131.8 411,-131.8 912.91,-131.8 912.91,-131.8"/>
<polygon fill="black" stroke="black" points="912.91,-135.3 922.91,-131.8 912.91,-128.3 912.91,-135.3"/>
</g>
<!-- SongModule -->
<g id="node12" class="node">
<title>SongModule</title>
<polygon fill="#8dd3c7" stroke="black" points="344.34,-84.8 341.34,-88.8 320.34,-88.8 317.34,-84.8 255.66,-84.8 255.66,-48.8 344.34,-48.8 344.34,-84.8"/>
<text text-anchor="middle" x="300" y="-62.6" font-family="Times,serif" font-size="14.00">SongModule</text>
</g>
<!-- SongModule&#45;&gt;AppModule -->
<g id="edge12" class="edge">
<title>SongModule&#45;&gt;AppModule</title>
<path fill="none" stroke="black" d="M300,-84.83C300,-105.57 300,-136.8 300,-136.8 300,-136.8 913.15,-136.8 913.15,-136.8"/>
<polygon fill="black" stroke="black" points="913.15,-140.3 923.15,-136.8 913.15,-133.3 913.15,-140.3"/>
</g>
<!-- UserModule -->
<g id="node13" class="node">
<title>UserModule</title>
<polygon fill="#8dd3c7" stroke="black" points="237.99,-84.8 234.99,-88.8 213.99,-88.8 210.99,-84.8 152.01,-84.8 152.01,-48.8 237.99,-48.8 237.99,-84.8"/>
<text text-anchor="middle" x="195" y="-62.6" font-family="Times,serif" font-size="14.00">UserModule</text>
</g>
<!-- UserModule&#45;&gt;AppModule -->
<g id="edge13" class="edge">
<title>UserModule&#45;&gt;AppModule</title>
<path fill="none" stroke="black" d="M195,-85.09C195,-107.01 195,-140.8 195,-140.8 195,-140.8 913.33,-140.8 913.33,-140.8"/>
<polygon fill="black" stroke="black" points="913.33,-144.3 923.33,-140.8 913.33,-137.3 913.33,-144.3"/>
</g>
<!-- UserPlanModule -->
<g id="node14" class="node">
<title>UserPlanModule</title>
<polygon fill="#8dd3c7" stroke="black" points="134.38,-84.8 131.38,-88.8 110.38,-88.8 107.38,-84.8 23.62,-84.8 23.62,-48.8 134.38,-48.8 134.38,-84.8"/>
<text text-anchor="middle" x="79" y="-62.6" font-family="Times,serif" font-size="14.00">UserPlanModule</text>
</g>
<!-- UserPlanModule&#45;&gt;AppModule -->
<g id="edge14" class="edge">
<title>UserPlanModule&#45;&gt;AppModule</title>
<path fill="none" stroke="black" d="M79,-85.12C79,-108.46 79,-145.8 79,-145.8 79,-145.8 913.16,-145.8 913.16,-145.8"/>
<polygon fill="black" stroke="black" points="913.16,-149.3 923.16,-145.8 913.16,-142.3 913.16,-149.3"/>
</g>
<!-- AppService -->
<g id="node16" class="node">
<title>AppService</title>
<ellipse fill="#fdb462" stroke="black" cx="1805" cy="-66.8" rx="56.75" ry="18"/>
<text text-anchor="middle" x="1805" y="-62.6" font-family="Times,serif" font-size="14.00">AppService</text>
</g>
<!-- AppService&#45;&gt;AppModule -->
<g id="edge15" class="edge">
<title>AppService&#45;&gt;AppModule</title>
<path fill="none" stroke="black" d="M1805,-85.12C1805,-108.46 1805,-145.8 1805,-145.8 1805,-145.8 1016.94,-145.8 1016.94,-145.8"/>
<polygon fill="black" stroke="black" points="1016.94,-142.3 1006.94,-145.8 1016.94,-149.3 1016.94,-142.3"/>
</g>
</g>
</svg>
