<?xml version="1.0" encoding="UTF-8" standalone="no"?>
<!DOCTYPE svg PUBLIC "-//W3C//DTD SVG 1.1//EN"
 "http://www.w3.org/Graphics/SVG/1.1/DTD/svg11.dtd">
<!-- Generated by graphviz version 3.0.0 (20220226.1711)
 -->
<!-- Title: dependencies Pages: 1 -->
<svg width="298pt" height="174pt"
 viewBox="0.00 0.00 298.00 173.80" xmlns="http://www.w3.org/2000/svg" xmlns:xlink="http://www.w3.org/1999/xlink">
<g id="graph0" class="graph" transform="scale(1 1) rotate(0) translate(4 169.8)">
<title>dependencies</title>
<polygon fill="white" stroke="transparent" points="-4,4 -4,-169.8 294,-169.8 294,4 -4,4"/>
<text text-anchor="middle" x="145" y="-8.2" font-family="sans-serif" font-size="14.00">dependencies</text>
<g id="clust1" class="cluster">
<title>cluster_SongModule</title>
<polygon fill="none" stroke="black" stroke-dasharray="1,5" points="8,-32.8 8,-157.8 282,-157.8 282,-32.8 8,-32.8"/>
</g>
<g id="clust6" class="cluster">
<title>cluster_SongModule_providers</title>
<polygon fill="none" stroke="black" points="138,-40.8 138,-92.8 274,-92.8 274,-40.8 138,-40.8"/>
</g>
<g id="clust3" class="cluster">
<title>cluster_SongModule_imports</title>
<polygon fill="none" stroke="black" points="16,-40.8 16,-92.8 130,-92.8 130,-40.8 16,-40.8"/>
</g>
<!-- PrismaModule -->
<g id="node1" class="node">
<title>PrismaModule</title>
<polygon fill="#8dd3c7" stroke="black" points="122.44,-84.8 119.44,-88.8 98.44,-88.8 95.44,-84.8 23.56,-84.8 23.56,-48.8 122.44,-48.8 122.44,-84.8"/>
<text text-anchor="middle" x="73" y="-62.6" font-family="Times,serif" font-size="14.00">PrismaModule</text>
</g>
<!-- SongModule -->
<g id="node2" class="node">
<title>SongModule</title>
<polygon fill="#8dd3c7" stroke="black" points="183.34,-149.8 180.34,-153.8 159.34,-153.8 156.34,-149.8 94.66,-149.8 94.66,-113.8 183.34,-113.8 183.34,-149.8"/>
<text text-anchor="middle" x="139" y="-127.6" font-family="Times,serif" font-size="14.00">SongModule</text>
</g>
<!-- PrismaModule&#45;&gt;SongModule -->
<g id="edge1" class="edge">
<title>PrismaModule&#45;&gt;SongModule</title>
<path fill="none" stroke="black" d="M108.53,-84.91C108.53,-84.91 108.53,-103.79 108.53,-103.79"/>
<polygon fill="black" stroke="black" points="105.03,-103.79 108.53,-113.79 112.03,-103.79 105.03,-103.79"/>
</g>
<!-- SongService -->
<g id="node3" class="node">
<title>SongService</title>
<ellipse fill="#fdb462" stroke="black" cx="206" cy="-66.8" rx="59.7" ry="18"/>
<text text-anchor="middle" x="206" y="-62.6" font-family="Times,serif" font-size="14.00">SongService</text>
</g>
<!-- SongService&#45;&gt;SongModule -->
<g id="edge2" class="edge">
<title>SongService&#45;&gt;SongModule</title>
<path fill="none" stroke="black" d="M164.66,-79.95C164.66,-79.95 164.66,-103.49 164.66,-103.49"/>
<polygon fill="black" stroke="black" points="161.16,-103.49 164.66,-113.49 168.16,-103.49 161.16,-103.49"/>
</g>
</g>
</svg>
