<?xml version="1.0" encoding="UTF-8" standalone="no"?>
<!DOCTYPE svg PUBLIC "-//W3C//DTD SVG 1.1//EN"
 "http://www.w3.org/Graphics/SVG/1.1/DTD/svg11.dtd">
<!-- Generated by graphviz version 3.0.0 (20220226.1711)
 -->
<!-- Title: dependencies Pages: 1 -->
<svg width="2948pt" height="250pt"
 viewBox="0.00 0.00 2948.00 249.80" xmlns="http://www.w3.org/2000/svg" xmlns:xlink="http://www.w3.org/1999/xlink">
<g id="graph0" class="graph" transform="scale(1 1) rotate(0) translate(4 245.8)">
<title>dependencies</title>
<polygon fill="white" stroke="transparent" points="-4,4 -4,-245.8 2944,-245.8 2944,4 -4,4"/>
<text text-anchor="middle" x="1470" y="-8.2" font-family="sans-serif" font-size="14.00">dependencies</text>
<g id="clust1" class="cluster">
<title>cluster_AdminModule</title>
<polygon fill="none" stroke="black" stroke-dasharray="1,5" points="2172,-32.8 2172,-168.8 2460,-168.8 2460,-32.8 2172,-32.8"/>
</g>
<g id="clust3" class="cluster">
<title>cluster_AdminModule_imports</title>
<polygon fill="none" stroke="black" points="2180,-40.8 2180,-92.8 2294,-92.8 2294,-40.8 2180,-40.8"/>
</g>
<g id="clust6" class="cluster">
<title>cluster_AdminModule_providers</title>
<polygon fill="none" stroke="black" points="2302,-40.8 2302,-92.8 2452,-92.8 2452,-40.8 2302,-40.8"/>
</g>
<g id="clust7" class="cluster">
<title>cluster_AlbumModule</title>
<polygon fill="none" stroke="black" stroke-dasharray="1,5" points="2766,-32.8 2766,-168.8 2932,-168.8 2932,-32.8 2766,-32.8"/>
</g>
<g id="clust12" class="cluster">
<title>cluster_AlbumModule_providers</title>
<polygon fill="none" stroke="black" points="2774,-40.8 2774,-92.8 2924,-92.8 2924,-40.8 2774,-40.8"/>
</g>
<g id="clust13" class="cluster">
<title>cluster_AppModule</title>
<polygon fill="none" stroke="black" stroke-dasharray="1,5" points="643,-108.8 643,-233.8 2164,-233.8 2164,-108.8 643,-108.8"/>
</g>
<g id="clust15" class="cluster">
<title>cluster_AppModule_imports</title>
<polygon fill="none" stroke="black" points="789,-116.8 789,-168.8 2156,-168.8 2156,-116.8 789,-116.8"/>
</g>
<g id="clust18" class="cluster">
<title>cluster_AppModule_providers</title>
<polygon fill="none" stroke="black" points="651,-116.8 651,-168.8 781,-168.8 781,-116.8 651,-116.8"/>
</g>
<g id="clust19" class="cluster">
<title>cluster_ArtistModule</title>
<polygon fill="none" stroke="black" stroke-dasharray="1,5" points="8,-32.8 8,-100.8 164,-100.8 164,-32.8 8,-32.8"/>
</g>
<g id="clust24" class="cluster">
<title>cluster_ArtistModule_providers</title>
<polygon fill="none" stroke="black" points="16,-40.8 16,-92.8 156,-92.8 156,-40.8 16,-40.8"/>
</g>
<g id="clust25" class="cluster">
<title>cluster_AuthModule</title>
<polygon fill="none" stroke="black" stroke-dasharray="1,5" points="172,-32.8 172,-100.8 454,-100.8 454,-32.8 172,-32.8"/>
</g>
<g id="clust30" class="cluster">
<title>cluster_AuthModule_providers</title>
<polygon fill="none" stroke="black" points="180,-40.8 180,-92.8 446,-92.8 446,-40.8 180,-40.8"/>
</g>
<g id="clust31" class="cluster">
<title>cluster_CategoryModule</title>
<polygon fill="none" stroke="black" stroke-dasharray="1,5" points="462,-32.8 462,-100.8 644,-100.8 644,-32.8 462,-32.8"/>
</g>
<g id="clust36" class="cluster">
<title>cluster_CategoryModule_providers</title>
<polygon fill="none" stroke="black" points="470,-40.8 470,-92.8 636,-92.8 636,-40.8 470,-40.8"/>
</g>
<g id="clust37" class="cluster">
<title>cluster_CountryModule</title>
<polygon fill="none" stroke="black" stroke-dasharray="1,5" points="652,-32.8 652,-100.8 828,-100.8 828,-32.8 652,-32.8"/>
</g>
<g id="clust42" class="cluster">
<title>cluster_CountryModule_providers</title>
<polygon fill="none" stroke="black" points="660,-40.8 660,-92.8 820,-92.8 820,-40.8 660,-40.8"/>
</g>
<g id="clust43" class="cluster">
<title>cluster_HomePageModule</title>
<polygon fill="none" stroke="black" stroke-dasharray="1,5" points="836,-32.8 836,-100.8 1032,-100.8 1032,-32.8 836,-32.8"/>
</g>
<g id="clust48" class="cluster">
<title>cluster_HomePageModule_providers</title>
<polygon fill="none" stroke="black" points="844,-40.8 844,-92.8 1024,-92.8 1024,-40.8 844,-40.8"/>
</g>
<g id="clust49" class="cluster">
<title>cluster_PlaylistModule</title>
<polygon fill="none" stroke="black" stroke-dasharray="1,5" points="1040,-32.8 1040,-100.8 1210,-100.8 1210,-32.8 1040,-32.8"/>
</g>
<g id="clust54" class="cluster">
<title>cluster_PlaylistModule_providers</title>
<polygon fill="none" stroke="black" points="1048,-40.8 1048,-92.8 1202,-92.8 1202,-40.8 1048,-40.8"/>
</g>
<g id="clust55" class="cluster">
<title>cluster_PrismaModule</title>
<polygon fill="none" stroke="black" stroke-dasharray="1,5" points="2468,-108.8 2468,-176.8 2758,-176.8 2758,-108.8 2468,-108.8"/>
</g>
<g id="clust58" class="cluster">
<title>cluster_PrismaModule_exports</title>
<polygon fill="none" stroke="black" points="2634,-116.8 2634,-168.8 2750,-168.8 2750,-116.8 2634,-116.8"/>
</g>
<g id="clust60" class="cluster">
<title>cluster_PrismaModule_providers</title>
<polygon fill="none" stroke="black" points="2476,-116.8 2476,-168.8 2626,-168.8 2626,-116.8 2476,-116.8"/>
</g>
<g id="clust61" class="cluster">
<title>cluster_ProfileFavoriteSongModule</title>
<polygon fill="none" stroke="black" stroke-dasharray="1,5" points="1218,-32.8 1218,-100.8 1486,-100.8 1486,-32.8 1218,-32.8"/>
</g>
<g id="clust66" class="cluster">
<title>cluster_ProfileFavoriteSongModule_providers</title>
<polygon fill="none" stroke="black" points="1226,-40.8 1226,-92.8 1478,-92.8 1478,-40.8 1226,-40.8"/>
</g>
<g id="clust67" class="cluster">
<title>cluster_ProfileModule</title>
<polygon fill="none" stroke="black" stroke-dasharray="1,5" points="1494,-32.8 1494,-100.8 1658,-100.8 1658,-32.8 1494,-32.8"/>
</g>
<g id="clust72" class="cluster">
<title>cluster_ProfileModule_providers</title>
<polygon fill="none" stroke="black" points="1502,-40.8 1502,-92.8 1650,-92.8 1650,-40.8 1502,-40.8"/>
</g>
<g id="clust73" class="cluster">
<title>cluster_SongModule</title>
<polygon fill="none" stroke="black" stroke-dasharray="1,5" points="1666,-32.8 1666,-100.8 1818,-100.8 1818,-32.8 1666,-32.8"/>
</g>
<g id="clust78" class="cluster">
<title>cluster_SongModule_providers</title>
<polygon fill="none" stroke="black" points="1674,-40.8 1674,-92.8 1810,-92.8 1810,-40.8 1674,-40.8"/>
</g>
<g id="clust79" class="cluster">
<title>cluster_UserModule</title>
<polygon fill="none" stroke="black" stroke-dasharray="1,5" points="1826,-32.8 1826,-100.8 1974,-100.8 1974,-32.8 1826,-32.8"/>
</g>
<g id="clust84" class="cluster">
<title>cluster_UserModule_providers</title>
<polygon fill="none" stroke="black" points="1834,-40.8 1834,-92.8 1966,-92.8 1966,-40.8 1834,-40.8"/>
</g>
<g id="clust85" class="cluster">
<title>cluster_UserPlanModule</title>
<polygon fill="none" stroke="black" stroke-dasharray="1,5" points="1982,-32.8 1982,-100.8 2164,-100.8 2164,-32.8 1982,-32.8"/>
</g>
<g id="clust90" class="cluster">
<title>cluster_UserPlanModule_providers</title>
<polygon fill="none" stroke="black" points="1990,-40.8 1990,-92.8 2156,-92.8 2156,-40.8 1990,-40.8"/>
</g>
<!-- PrismaModule -->
<g id="node1" class="node">
<title>PrismaModule</title>
<polygon fill="#8dd3c7" stroke="black" points="2286.44,-84.8 2283.44,-88.8 2262.44,-88.8 2259.44,-84.8 2187.56,-84.8 2187.56,-48.8 2286.44,-48.8 2286.44,-84.8"/>
<text text-anchor="middle" x="2237" y="-62.6" font-family="Times,serif" font-size="14.00">PrismaModule</text>
</g>
<!-- AdminModule -->
<g id="node2" class="node">
<title>AdminModule</title>
<polygon fill="#8dd3c7" stroke="black" points="2278.44,-160.8 2275.44,-164.8 2254.44,-164.8 2251.44,-160.8 2179.56,-160.8 2179.56,-124.8 2278.44,-124.8 2278.44,-160.8"/>
<text text-anchor="middle" x="2229" y="-138.6" font-family="Times,serif" font-size="14.00">AdminModule</text>
</g>
<!-- PrismaModule&#45;&gt;AdminModule -->
<g id="edge1" class="edge">
<title>PrismaModule&#45;&gt;AdminModule</title>
<path fill="none" stroke="black" d="M2270.68,-84.81C2270.68,-84.81 2270.68,-114.65 2270.68,-114.65"/>
<polygon fill="black" stroke="black" points="2267.18,-114.65 2270.68,-124.65 2274.18,-114.65 2267.18,-114.65"/>
</g>
<!-- AlbumModule -->
<g id="node4" class="node">
<title>AlbumModule</title>
<polygon fill="#8dd3c7" stroke="black" points="2872.44,-160.8 2869.44,-164.8 2848.44,-164.8 2845.44,-160.8 2773.56,-160.8 2773.56,-124.8 2872.44,-124.8 2872.44,-160.8"/>
<text text-anchor="middle" x="2823" y="-138.6" font-family="Times,serif" font-size="14.00">AlbumModule</text>
</g>
<!-- PrismaModule&#45;&gt;AlbumModule -->
<g id="edge3" class="edge">
<title>PrismaModule&#45;&gt;AlbumModule</title>
<path fill="none" stroke="black" d="M2282.22,-84.84C2282.22,-92.55 2282.22,-99.8 2282.22,-99.8 2282.22,-99.8 2777.98,-99.8 2777.98,-99.8 2777.98,-99.8 2777.98,-114.31 2777.98,-114.31"/>
<polygon fill="black" stroke="black" points="2774.48,-114.31 2777.98,-124.31 2781.48,-114.31 2774.48,-114.31"/>
</g>
<!-- ArtistModule -->
<g id="node6" class="node">
<title>ArtistModule</title>
<polygon fill="#8dd3c7" stroke="black" points="888.94,-160.8 885.94,-164.8 864.94,-164.8 861.94,-160.8 797.06,-160.8 797.06,-124.8 888.94,-124.8 888.94,-160.8"/>
<text text-anchor="middle" x="843" y="-138.6" font-family="Times,serif" font-size="14.00">ArtistModule</text>
</g>
<!-- PrismaModule&#45;&gt;ArtistModule -->
<g id="edge20" class="edge">
<title>PrismaModule&#45;&gt;ArtistModule</title>
<path fill="none" stroke="black" d="M2195.32,-84.95C2195.32,-86.1 2195.32,-86.8 2195.32,-86.8 2195.32,-86.8 870.18,-86.8 870.18,-86.8 870.18,-86.8 870.18,-114.77 870.18,-114.77"/>
<polygon fill="black" stroke="black" points="866.68,-114.77 870.18,-124.77 873.68,-114.77 866.68,-114.77"/>
</g>
<!-- AuthModule -->
<g id="node7" class="node">
<title>AuthModule</title>
<polygon fill="#8dd3c7" stroke="black" points="993.55,-160.8 990.55,-164.8 969.55,-164.8 966.55,-160.8 906.45,-160.8 906.45,-124.8 993.55,-124.8 993.55,-160.8"/>
<text text-anchor="middle" x="950" y="-138.6" font-family="Times,serif" font-size="14.00">AuthModule</text>
</g>
<!-- PrismaModule&#45;&gt;AuthModule -->
<g id="edge22" class="edge">
<title>PrismaModule&#45;&gt;AuthModule</title>
<path fill="none" stroke="black" d="M2202.85,-84.97C2202.85,-87.25 2202.85,-88.8 2202.85,-88.8 2202.85,-88.8 971.89,-88.8 971.89,-88.8 971.89,-88.8 971.89,-114.52 971.89,-114.52"/>
<polygon fill="black" stroke="black" points="968.39,-114.52 971.89,-124.52 975.39,-114.52 968.39,-114.52"/>
</g>
<!-- CategoryModule -->
<g id="node8" class="node">
<title>CategoryModule</title>
<polygon fill="#8dd3c7" stroke="black" points="1122.37,-160.8 1119.37,-164.8 1098.37,-164.8 1095.37,-160.8 1011.63,-160.8 1011.63,-124.8 1122.37,-124.8 1122.37,-160.8"/>
<text text-anchor="middle" x="1067" y="-138.6" font-family="Times,serif" font-size="14.00">CategoryModule</text>
</g>
<!-- PrismaModule&#45;&gt;CategoryModule -->
<g id="edge25" class="edge">
<title>PrismaModule&#45;&gt;CategoryModule</title>
<path fill="none" stroke="black" d="M2210.39,-84.99C2210.39,-88.34 2210.39,-90.8 2210.39,-90.8 2210.39,-90.8 1089.23,-90.8 1089.23,-90.8 1089.23,-90.8 1089.23,-114.61 1089.23,-114.61"/>
<polygon fill="black" stroke="black" points="1085.73,-114.61 1089.23,-124.61 1092.73,-114.61 1085.73,-114.61"/>
</g>
<!-- CountryModule -->
<g id="node9" class="node">
<title>CountryModule</title>
<polygon fill="#8dd3c7" stroke="black" points="1245.94,-160.8 1242.94,-164.8 1221.94,-164.8 1218.94,-160.8 1140.06,-160.8 1140.06,-124.8 1245.94,-124.8 1245.94,-160.8"/>
<text text-anchor="middle" x="1193" y="-138.6" font-family="Times,serif" font-size="14.00">CountryModule</text>
</g>
<!-- PrismaModule&#45;&gt;CountryModule -->
<g id="edge27" class="edge">
<title>PrismaModule&#45;&gt;CountryModule</title>
<path fill="none" stroke="black" d="M2217.93,-84.86C2217.93,-89.29 2217.93,-92.8 2217.93,-92.8 2217.93,-92.8 1239.7,-92.8 1239.7,-92.8 1239.7,-92.8 1239.7,-114.75 1239.7,-114.75"/>
<polygon fill="black" stroke="black" points="1236.2,-114.75 1239.7,-124.75 1243.2,-114.75 1236.2,-114.75"/>
</g>
<!-- HomePageModule -->
<g id="node10" class="node">
<title>HomePageModule</title>
<polygon fill="#8dd3c7" stroke="black" points="1384.48,-160.8 1381.48,-164.8 1360.48,-164.8 1357.48,-160.8 1263.52,-160.8 1263.52,-124.8 1384.48,-124.8 1384.48,-160.8"/>
<text text-anchor="middle" x="1324" y="-138.6" font-family="Times,serif" font-size="14.00">HomePageModule</text>
</g>
<!-- PrismaModule&#45;&gt;HomePageModule -->
<g id="edge29" class="edge">
<title>PrismaModule&#45;&gt;HomePageModule</title>
<path fill="none" stroke="black" d="M2225.46,-85.01C2225.46,-90.35 2225.46,-94.8 2225.46,-94.8 2225.46,-94.8 1344.16,-94.8 1344.16,-94.8 1344.16,-94.8 1344.16,-114.65 1344.16,-114.65"/>
<polygon fill="black" stroke="black" points="1340.66,-114.65 1344.16,-124.65 1347.66,-114.65 1340.66,-114.65"/>
</g>
<!-- PlaylistModule -->
<g id="node11" class="node">
<title>PlaylistModule</title>
<polygon fill="#8dd3c7" stroke="black" points="1503.56,-160.8 1500.56,-164.8 1479.56,-164.8 1476.56,-160.8 1402.44,-160.8 1402.44,-124.8 1503.56,-124.8 1503.56,-160.8"/>
<text text-anchor="middle" x="1453" y="-138.6" font-family="Times,serif" font-size="14.00">PlaylistModule</text>
</g>
<!-- PrismaModule&#45;&gt;PlaylistModule -->
<g id="edge31" class="edge">
<title>PrismaModule&#45;&gt;PlaylistModule</title>
<path fill="none" stroke="black" d="M2233,-85C2233,-90.83 2233,-95.8 2233,-95.8 2233,-95.8 1487.05,-95.8 1487.05,-95.8 1487.05,-95.8 1487.05,-114.76 1487.05,-114.76"/>
<polygon fill="black" stroke="black" points="1483.55,-114.76 1487.05,-124.76 1490.55,-114.76 1483.55,-114.76"/>
</g>
<!-- ProfileFavoriteSongModule -->
<g id="node12" class="node">
<title>ProfileFavoriteSongModule</title>
<polygon fill="#8dd3c7" stroke="black" points="1694.6,-160.8 1691.6,-164.8 1670.6,-164.8 1667.6,-160.8 1521.4,-160.8 1521.4,-124.8 1694.6,-124.8 1694.6,-160.8"/>
<text text-anchor="middle" x="1608" y="-138.6" font-family="Times,serif" font-size="14.00">ProfileFavoriteSongModule</text>
</g>
<!-- PrismaModule&#45;&gt;ProfileFavoriteSongModule -->
<g id="edge35" class="edge">
<title>PrismaModule&#45;&gt;ProfileFavoriteSongModule</title>
<path fill="none" stroke="black" d="M2240.54,-84.83C2240.54,-91.65 2240.54,-97.8 2240.54,-97.8 2240.54,-97.8 1688.35,-97.8 1688.35,-97.8 1688.35,-97.8 1688.35,-114.76 1688.35,-114.76"/>
<polygon fill="black" stroke="black" points="1684.85,-114.76 1688.35,-124.76 1691.85,-114.76 1684.85,-114.76"/>
</g>
<!-- ProfileModule -->
<g id="node13" class="node">
<title>ProfileModule</title>
<polygon fill="#8dd3c7" stroke="black" points="1809.66,-160.8 1806.66,-164.8 1785.66,-164.8 1782.66,-160.8 1712.34,-160.8 1712.34,-124.8 1809.66,-124.8 1809.66,-160.8"/>
<text text-anchor="middle" x="1761" y="-138.6" font-family="Times,serif" font-size="14.00">ProfileModule</text>
</g>
<!-- PrismaModule&#45;&gt;ProfileModule -->
<g id="edge37" class="edge">
<title>PrismaModule&#45;&gt;ProfileModule</title>
<path fill="none" stroke="black" d="M2248.07,-85.12C2248.07,-93.59 2248.07,-101.8 2248.07,-101.8 2248.07,-101.8 1805.84,-101.8 1805.84,-101.8 1805.84,-101.8 1805.84,-114.7 1805.84,-114.7"/>
<polygon fill="black" stroke="black" points="1802.34,-114.7 1805.84,-124.7 1809.34,-114.7 1802.34,-114.7"/>
</g>
<!-- SongModule -->
<g id="node14" class="node">
<title>SongModule</title>
<polygon fill="#8dd3c7" stroke="black" points="1916.34,-160.8 1913.34,-164.8 1892.34,-164.8 1889.34,-160.8 1827.66,-160.8 1827.66,-124.8 1916.34,-124.8 1916.34,-160.8"/>
<text text-anchor="middle" x="1872" y="-138.6" font-family="Times,serif" font-size="14.00">SongModule</text>
</g>
<!-- PrismaModule&#45;&gt;SongModule -->
<g id="edge39" class="edge">
<title>PrismaModule&#45;&gt;SongModule</title>
<path fill="none" stroke="black" d="M2255.61,-84.91C2255.61,-94.7 2255.61,-104.8 2255.61,-104.8 2255.61,-104.8 1878.97,-104.8 1878.97,-104.8 1878.97,-104.8 1878.97,-114.69 1878.97,-114.69"/>
<polygon fill="black" stroke="black" points="1875.47,-114.69 1878.97,-124.69 1882.47,-114.69 1875.47,-114.69"/>
</g>
<!-- UserModule -->
<g id="node15" class="node">
<title>UserModule</title>
<polygon fill="#8dd3c7" stroke="black" points="2019.99,-160.8 2016.99,-164.8 1995.99,-164.8 1992.99,-160.8 1934.01,-160.8 1934.01,-124.8 2019.99,-124.8 2019.99,-160.8"/>
<text text-anchor="middle" x="1977" y="-138.6" font-family="Times,serif" font-size="14.00">UserModule</text>
</g>
<!-- PrismaModule&#45;&gt;UserModule -->
<g id="edge41" class="edge">
<title>PrismaModule&#45;&gt;UserModule</title>
<path fill="none" stroke="black" d="M2263.15,-84.93C2263.15,-95.51 2263.15,-106.8 2263.15,-106.8 2263.15,-106.8 2008.8,-106.8 2008.8,-106.8 2008.8,-106.8 2008.8,-114.38 2008.8,-114.38"/>
<polygon fill="black" stroke="black" points="2005.3,-114.38 2008.8,-124.38 2012.3,-114.38 2005.3,-114.38"/>
</g>
<!-- UserPlanModule -->
<g id="node16" class="node">
<title>UserPlanModule</title>
<polygon fill="#8dd3c7" stroke="black" points="2148.38,-160.8 2145.38,-164.8 2124.38,-164.8 2121.38,-160.8 2037.62,-160.8 2037.62,-124.8 2148.38,-124.8 2148.38,-160.8"/>
<text text-anchor="middle" x="2093" y="-138.6" font-family="Times,serif" font-size="14.00">UserPlanModule</text>
</g>
<!-- PrismaModule&#45;&gt;UserPlanModule -->
<g id="edge43" class="edge">
<title>PrismaModule&#45;&gt;UserPlanModule</title>
<path fill="none" stroke="black" d="M2187.53,-60.8C2172.03,-60.8 2158.89,-60.8 2158.89,-60.8 2158.89,-60.8 2158.89,-142.8 2158.89,-142.8 2158.89,-142.8 2157.86,-142.8 2157.86,-142.8"/>
<polygon fill="black" stroke="black" points="2158.59,-139.3 2148.59,-142.8 2158.59,-146.3 2158.59,-139.3"/>
</g>
<!-- AppModule -->
<g id="node17" class="node">
<title>AppModule</title>
<polygon fill="#8dd3c7" stroke="black" points="1649.66,-225.8 1646.66,-229.8 1625.66,-229.8 1622.66,-225.8 1566.34,-225.8 1566.34,-189.8 1649.66,-189.8 1649.66,-225.8"/>
<text text-anchor="middle" x="1608" y="-203.6" font-family="Times,serif" font-size="14.00">AppModule</text>
</g>
<!-- PrismaModule&#45;&gt;AppModule -->
<g id="edge13" class="edge">
<title>PrismaModule&#45;&gt;AppModule</title>
<path fill="none" stroke="black" d="M2187.47,-72.8C2177.15,-72.8 2169.33,-72.8 2169.33,-72.8 2169.33,-72.8 2169.33,-212.8 2169.33,-212.8 2169.33,-212.8 1659.73,-212.8 1659.73,-212.8"/>
<polygon fill="black" stroke="black" points="1659.73,-209.3 1649.73,-212.8 1659.73,-216.3 1659.73,-209.3"/>
</g>
<!-- PrismaService  -->
<g id="node26" class="node">
<title>PrismaService </title>
<polygon fill="#fb8072" stroke="black" points="2742.37,-160.8 2641.63,-160.8 2641.63,-124.8 2742.37,-124.8 2742.37,-160.8"/>
<text text-anchor="middle" x="2692" y="-138.6" font-family="Times,serif" font-size="14.00">PrismaService </text>
</g>
<!-- PrismaModule&#45;&gt;PrismaService  -->
<g id="edge33" class="edge">
<title>PrismaModule&#45;&gt;PrismaService </title>
<path fill="none" stroke="black" stroke-dasharray="5,2" d="M2280.22,-84.87C2280.22,-94.26 2280.22,-103.8 2280.22,-103.8 2280.22,-103.8 2692,-103.8 2692,-103.8 2692,-103.8 2692,-114.67 2692,-114.67"/>
<polygon fill="black" stroke="black" points="2688.5,-114.67 2692,-124.67 2695.5,-114.67 2688.5,-114.67"/>
</g>
<!-- AdminModule&#45;&gt;AppModule -->
<g id="edge5" class="edge">
<title>AdminModule&#45;&gt;AppModule</title>
<path fill="none" stroke="black" d="M2229,-161.09C2229,-183.01 2229,-216.8 2229,-216.8 2229,-216.8 1659.71,-216.8 1659.71,-216.8"/>
<polygon fill="black" stroke="black" points="1659.71,-213.3 1649.71,-216.8 1659.71,-220.3 1659.71,-213.3"/>
</g>
<!-- AdminService -->
<g id="node3" class="node">
<title>AdminService</title>
<ellipse fill="#fdb462" stroke="black" cx="2377" cy="-66.8" rx="66.64" ry="18"/>
<text text-anchor="middle" x="2377" y="-62.6" font-family="Times,serif" font-size="14.00">AdminService</text>
</g>
<!-- AdminService&#45;&gt;AdminModule -->
<g id="edge2" class="edge">
<title>AdminService&#45;&gt;AdminModule</title>
<path fill="none" stroke="black" d="M2377,-85C2377,-109.16 2377,-148.8 2377,-148.8 2377,-148.8 2288.28,-148.8 2288.28,-148.8"/>
<polygon fill="black" stroke="black" points="2288.28,-145.3 2278.28,-148.8 2288.28,-152.3 2288.28,-145.3"/>
</g>
<!-- AlbumModule&#45;&gt;AppModule -->
<g id="edge6" class="edge">
<title>AlbumModule&#45;&gt;AppModule</title>
<path fill="none" stroke="black" d="M2823,-161.12C2823,-184.46 2823,-221.8 2823,-221.8 2823,-221.8 1659.82,-221.8 1659.82,-221.8"/>
<polygon fill="black" stroke="black" points="1659.82,-218.3 1649.82,-221.8 1659.82,-225.3 1659.82,-218.3"/>
</g>
<!-- AlbumService -->
<g id="node5" class="node">
<title>AlbumService</title>
<ellipse fill="#fdb462" stroke="black" cx="2849" cy="-66.8" rx="66.64" ry="18"/>
<text text-anchor="middle" x="2849" y="-62.6" font-family="Times,serif" font-size="14.00">AlbumService</text>
</g>
<!-- AlbumService&#45;&gt;AlbumModule -->
<g id="edge4" class="edge">
<title>AlbumService&#45;&gt;AlbumModule</title>
<path fill="none" stroke="black" d="M2827.2,-84.05C2827.2,-84.05 2827.2,-114.56 2827.2,-114.56"/>
<polygon fill="black" stroke="black" points="2823.7,-114.56 2827.2,-124.56 2830.7,-114.56 2823.7,-114.56"/>
</g>
<!-- ArtistModule&#45;&gt;AppModule -->
<g id="edge7" class="edge">
<title>ArtistModule&#45;&gt;AppModule</title>
<path fill="none" stroke="black" d="M843,-161.09C843,-183.01 843,-216.8 843,-216.8 843,-216.8 1556.33,-216.8 1556.33,-216.8"/>
<polygon fill="black" stroke="black" points="1556.33,-220.3 1566.33,-216.8 1556.33,-213.3 1556.33,-220.3"/>
</g>
<!-- AuthModule&#45;&gt;AppModule -->
<g id="edge8" class="edge">
<title>AuthModule&#45;&gt;AppModule</title>
<path fill="none" stroke="black" d="M950,-160.83C950,-181.57 950,-212.8 950,-212.8 950,-212.8 1556.09,-212.8 1556.09,-212.8"/>
<polygon fill="black" stroke="black" points="1556.09,-216.3 1566.09,-212.8 1556.09,-209.3 1556.09,-216.3"/>
</g>
<!-- CategoryModule&#45;&gt;AppModule -->
<g id="edge9" class="edge">
<title>CategoryModule&#45;&gt;AppModule</title>
<path fill="none" stroke="black" d="M1067,-160.91C1067,-180.14 1067,-207.8 1067,-207.8 1067,-207.8 1556,-207.8 1556,-207.8"/>
<polygon fill="black" stroke="black" points="1556,-211.3 1566,-207.8 1556,-204.3 1556,-211.3"/>
</g>
<!-- CountryModule&#45;&gt;AppModule -->
<g id="edge10" class="edge">
<title>CountryModule&#45;&gt;AppModule</title>
<path fill="none" stroke="black" d="M1193,-161.1C1193,-179.07 1193,-203.8 1193,-203.8 1193,-203.8 1556.31,-203.8 1556.31,-203.8"/>
<polygon fill="black" stroke="black" points="1556.31,-207.3 1566.31,-203.8 1556.31,-200.3 1556.31,-207.3"/>
</g>
<!-- HomePageModule&#45;&gt;AppModule -->
<g id="edge11" class="edge">
<title>HomePageModule&#45;&gt;AppModule</title>
<path fill="none" stroke="black" d="M1324,-160.83C1324,-177.2 1324,-198.8 1324,-198.8 1324,-198.8 1556.09,-198.8 1556.09,-198.8"/>
<polygon fill="black" stroke="black" points="1556.09,-202.3 1566.09,-198.8 1556.09,-195.3 1556.09,-202.3"/>
</g>
<!-- PlaylistModule&#45;&gt;AppModule -->
<g id="edge12" class="edge">
<title>PlaylistModule&#45;&gt;AppModule</title>
<path fill="none" stroke="black" d="M1453,-160.99C1453,-175.98 1453,-194.8 1453,-194.8 1453,-194.8 1556.05,-194.8 1556.05,-194.8"/>
<polygon fill="black" stroke="black" points="1556.05,-198.3 1566.05,-194.8 1556.05,-191.3 1556.05,-198.3"/>
</g>
<!-- ProfileFavoriteSongModule&#45;&gt;AppModule -->
<g id="edge14" class="edge">
<title>ProfileFavoriteSongModule&#45;&gt;AppModule</title>
<path fill="none" stroke="black" d="M1608,-160.91C1608,-160.91 1608,-179.79 1608,-179.79"/>
<polygon fill="black" stroke="black" points="1604.5,-179.79 1608,-189.79 1611.5,-179.79 1604.5,-179.79"/>
</g>
<!-- ProfileModule&#45;&gt;AppModule -->
<g id="edge15" class="edge">
<title>ProfileModule&#45;&gt;AppModule</title>
<path fill="none" stroke="black" d="M1761,-160.99C1761,-175.98 1761,-194.8 1761,-194.8 1761,-194.8 1659.81,-194.8 1659.81,-194.8"/>
<polygon fill="black" stroke="black" points="1659.81,-191.3 1649.81,-194.8 1659.81,-198.3 1659.81,-191.3"/>
</g>
<!-- SongModule&#45;&gt;AppModule -->
<g id="edge16" class="edge">
<title>SongModule&#45;&gt;AppModule</title>
<path fill="none" stroke="black" d="M1872,-160.83C1872,-177.2 1872,-198.8 1872,-198.8 1872,-198.8 1659.83,-198.8 1659.83,-198.8"/>
<polygon fill="black" stroke="black" points="1659.83,-195.3 1649.83,-198.8 1659.83,-202.3 1659.83,-195.3"/>
</g>
<!-- UserModule&#45;&gt;AppModule -->
<g id="edge17" class="edge">
<title>UserModule&#45;&gt;AppModule</title>
<path fill="none" stroke="black" d="M1977,-161.1C1977,-179.07 1977,-203.8 1977,-203.8 1977,-203.8 1659.97,-203.8 1659.97,-203.8"/>
<polygon fill="black" stroke="black" points="1659.97,-200.3 1649.97,-203.8 1659.97,-207.3 1659.97,-200.3"/>
</g>
<!-- UserPlanModule&#45;&gt;AppModule -->
<g id="edge18" class="edge">
<title>UserPlanModule&#45;&gt;AppModule</title>
<path fill="none" stroke="black" d="M2093,-160.91C2093,-180.14 2093,-207.8 2093,-207.8 2093,-207.8 1659.77,-207.8 1659.77,-207.8"/>
<polygon fill="black" stroke="black" points="1659.77,-204.3 1649.77,-207.8 1659.77,-211.3 1659.77,-204.3"/>
</g>
<!-- AppService -->
<g id="node18" class="node">
<title>AppService</title>
<ellipse fill="#fdb462" stroke="black" cx="716" cy="-142.8" rx="56.75" ry="18"/>
<text text-anchor="middle" x="716" y="-138.6" font-family="Times,serif" font-size="14.00">AppService</text>
</g>
<!-- AppService&#45;&gt;AppModule -->
<g id="edge19" class="edge">
<title>AppService&#45;&gt;AppModule</title>
<path fill="none" stroke="black" d="M716,-161.12C716,-184.46 716,-221.8 716,-221.8 716,-221.8 1556.17,-221.8 1556.17,-221.8"/>
<polygon fill="black" stroke="black" points="1556.17,-225.3 1566.17,-221.8 1556.17,-218.3 1556.17,-225.3"/>
</g>
<!-- ArtistService -->
<g id="node19" class="node">
<title>ArtistService</title>
<ellipse fill="#fdb462" stroke="black" cx="86" cy="-66.8" rx="61.98" ry="18"/>
<text text-anchor="middle" x="86" y="-62.6" font-family="Times,serif" font-size="14.00">ArtistService</text>
</g>
<!-- ArtistService&#45;&gt;ArtistModule -->
<g id="edge21" class="edge">
<title>ArtistService&#45;&gt;ArtistModule</title>
<path fill="none" stroke="black" d="M86,-84.84C86,-101.53 86,-123.8 86,-123.8 86,-123.8 802.07,-123.8 802.07,-123.8 802.07,-123.8 802.07,-123.88 802.07,-123.88"/>
<polygon fill="black" stroke="black" points="798.57,-114.62 802.07,-124.62 805.57,-114.62 798.57,-114.62"/>
</g>
<!-- AuthService -->
<g id="node20" class="node">
<title>AuthService</title>
<ellipse fill="#fdb462" stroke="black" cx="379" cy="-66.8" rx="59.11" ry="18"/>
<text text-anchor="middle" x="379" y="-62.6" font-family="Times,serif" font-size="14.00">AuthService</text>
</g>
<!-- AuthService&#45;&gt;AuthModule -->
<g id="edge23" class="edge">
<title>AuthService&#45;&gt;AuthModule</title>
<path fill="none" stroke="black" d="M379,-85.04C379,-100.37 379,-119.8 379,-119.8 379,-119.8 950,-119.8 950,-119.8 950,-119.8 950,-120.29 950,-120.29"/>
<polygon fill="black" stroke="black" points="946.5,-114.68 950,-124.68 953.5,-114.68 946.5,-114.68"/>
</g>
<!-- JwtStrategy -->
<g id="node21" class="node">
<title>JwtStrategy</title>
<ellipse fill="#fdb462" stroke="black" cx="245" cy="-66.8" rx="56.77" ry="18"/>
<text text-anchor="middle" x="245" y="-62.6" font-family="Times,serif" font-size="14.00">JwtStrategy</text>
</g>
<!-- JwtStrategy&#45;&gt;AuthModule -->
<g id="edge24" class="edge">
<title>JwtStrategy&#45;&gt;AuthModule</title>
<path fill="none" stroke="black" d="M245,-84.81C245,-100.85 245,-121.8 245,-121.8 245,-121.8 928.11,-121.8 928.11,-121.8 928.11,-121.8 928.11,-122.09 928.11,-122.09"/>
<polygon fill="black" stroke="black" points="924.61,-114.72 928.11,-124.72 931.61,-114.72 924.61,-114.72"/>
</g>
<!-- CategoryService -->
<g id="node22" class="node">
<title>CategoryService</title>
<ellipse fill="#fdb462" stroke="black" cx="553" cy="-66.8" rx="75.28" ry="18"/>
<text text-anchor="middle" x="553" y="-62.6" font-family="Times,serif" font-size="14.00">CategoryService</text>
</g>
<!-- CategoryService&#45;&gt;CategoryModule -->
<g id="edge26" class="edge">
<title>CategoryService&#45;&gt;CategoryModule</title>
<path fill="none" stroke="black" d="M553,-84.92C553,-99.58 553,-117.8 553,-117.8 553,-117.8 1036.2,-117.8 1036.2,-117.8 1036.2,-117.8 1036.2,-118.48 1036.2,-118.48"/>
<polygon fill="black" stroke="black" points="1032.7,-114.63 1036.2,-124.63 1039.7,-114.63 1032.7,-114.63"/>
</g>
<!-- CountryService -->
<g id="node23" class="node">
<title>CountryService</title>
<ellipse fill="#fdb462" stroke="black" cx="740" cy="-66.8" rx="71.79" ry="18"/>
<text text-anchor="middle" x="740" y="-62.6" font-family="Times,serif" font-size="14.00">CountryService</text>
</g>
<!-- CountryService&#45;&gt;CountryModule -->
<g id="edge28" class="edge">
<title>CountryService&#45;&gt;CountryModule</title>
<path fill="none" stroke="black" d="M806.86,-73.61C806.86,-87.08 806.86,-115.8 806.86,-115.8 806.86,-115.8 1158.18,-115.8 1158.18,-115.8 1158.18,-115.8 1158.18,-116.68 1158.18,-116.68"/>
<polygon fill="black" stroke="black" points="1154.68,-114.64 1158.18,-124.64 1161.68,-114.64 1154.68,-114.64"/>
</g>
<!-- HomePageService -->
<g id="node24" class="node">
<title>HomePageService</title>
<ellipse fill="#fdb462" stroke="black" cx="934" cy="-66.8" rx="82.23" ry="18"/>
<text text-anchor="middle" x="934" y="-62.6" font-family="Times,serif" font-size="14.00">HomePageService</text>
</g>
<!-- HomePageService&#45;&gt;HomePageModule -->
<g id="edge30" class="edge">
<title>HomePageService&#45;&gt;HomePageModule</title>
<path fill="none" stroke="black" d="M1002.67,-76.98C1002.67,-91.07 1002.67,-114.8 1002.67,-114.8 1002.67,-114.8 1303.84,-114.8 1303.84,-114.8 1303.84,-114.8 1303.84,-115.78 1303.84,-115.78"/>
<polygon fill="black" stroke="black" points="1300.34,-114.59 1303.84,-124.59 1307.34,-114.59 1300.34,-114.59"/>
</g>
<!-- PlaylistService -->
<g id="node25" class="node">
<title>PlaylistService</title>
<ellipse fill="#fdb462" stroke="black" cx="1125" cy="-66.8" rx="68.94" ry="18"/>
<text text-anchor="middle" x="1125" y="-62.6" font-family="Times,serif" font-size="14.00">PlaylistService</text>
</g>
<!-- PlaylistService&#45;&gt;PlaylistModule -->
<g id="edge32" class="edge">
<title>PlaylistService&#45;&gt;PlaylistModule</title>
<path fill="none" stroke="black" d="M1176.07,-79.37C1176.07,-92.99 1176.07,-112.8 1176.07,-112.8 1176.07,-112.8 1424.92,-112.8 1424.92,-112.8 1424.92,-112.8 1424.92,-114.66 1424.92,-114.66"/>
<polygon fill="black" stroke="black" points="1421.42,-114.66 1424.92,-124.66 1428.42,-114.66 1421.42,-114.66"/>
</g>
<!-- PrismaService -->
<g id="node27" class="node">
<title>PrismaService</title>
<ellipse fill="#fdb462" stroke="black" cx="2551" cy="-142.8" rx="66.64" ry="18"/>
<text text-anchor="middle" x="2551" y="-138.6" font-family="Times,serif" font-size="14.00">PrismaService</text>
</g>
<!-- PrismaService&#45;&gt;PrismaModule -->
<g id="edge34" class="edge">
<title>PrismaService&#45;&gt;PrismaModule</title>
<path fill="none" stroke="black" d="M2487.78,-136.8C2408.89,-136.8 2284.22,-136.8 2284.22,-136.8 2284.22,-136.8 2284.22,-94.83 2284.22,-94.83"/>
<polygon fill="black" stroke="black" points="2287.72,-94.83 2284.22,-84.83 2280.72,-94.83 2287.72,-94.83"/>
</g>
<!-- ProfileFavoriteSongService -->
<g id="node28" class="node">
<title>ProfileFavoriteSongService</title>
<ellipse fill="#fdb462" stroke="black" cx="1352" cy="-66.8" rx="118.13" ry="18"/>
<text text-anchor="middle" x="1352" y="-62.6" font-family="Times,serif" font-size="14.00">ProfileFavoriteSongService</text>
</g>
<!-- ProfileFavoriteSongService&#45;&gt;ProfileFavoriteSongModule -->
<g id="edge36" class="edge">
<title>ProfileFavoriteSongService&#45;&gt;ProfileFavoriteSongModule</title>
<path fill="none" stroke="black" d="M1447.62,-77.45C1447.62,-90.47 1447.62,-110.8 1447.62,-110.8 1447.62,-110.8 1561.73,-110.8 1561.73,-110.8 1561.73,-110.8 1561.73,-114.56 1561.73,-114.56"/>
<polygon fill="black" stroke="black" points="1558.23,-114.56 1561.73,-124.56 1565.23,-114.56 1558.23,-114.56"/>
</g>
<!-- ProfileService -->
<g id="node29" class="node">
<title>ProfileService</title>
<ellipse fill="#fdb462" stroke="black" cx="1576" cy="-66.8" rx="66.05" ry="18"/>
<text text-anchor="middle" x="1576" y="-62.6" font-family="Times,serif" font-size="14.00">ProfileService</text>
</g>
<!-- ProfileService&#45;&gt;ProfileModule -->
<g id="edge38" class="edge">
<title>ProfileService&#45;&gt;ProfileModule</title>
<path fill="none" stroke="black" d="M1602,-83.4C1602,-95.14 1602,-108.8 1602,-108.8 1602,-108.8 1757.01,-108.8 1757.01,-108.8 1757.01,-108.8 1757.01,-114.61 1757.01,-114.61"/>
<polygon fill="black" stroke="black" points="1753.51,-114.61 1757.01,-124.61 1760.51,-114.61 1753.51,-114.61"/>
</g>
<!-- SongService -->
<g id="node30" class="node">
<title>SongService</title>
<ellipse fill="#fdb462" stroke="black" cx="1742" cy="-66.8" rx="59.7" ry="18"/>
<text text-anchor="middle" x="1742" y="-62.6" font-family="Times,serif" font-size="14.00">SongService</text>
</g>
<!-- SongService&#45;&gt;SongModule -->
<g id="edge40" class="edge">
<title>SongService&#45;&gt;SongModule</title>
<path fill="none" stroke="black" d="M1802.08,-66.8C1819.92,-66.8 1834.8,-66.8 1834.8,-66.8 1834.8,-66.8 1834.8,-114.79 1834.8,-114.79"/>
<polygon fill="black" stroke="black" points="1831.3,-114.79 1834.8,-124.79 1838.3,-114.79 1831.3,-114.79"/>
</g>
<!-- UserService -->
<g id="node31" class="node">
<title>UserService</title>
<ellipse fill="#fdb462" stroke="black" cx="1900" cy="-66.8" rx="58.46" ry="18"/>
<text text-anchor="middle" x="1900" y="-62.6" font-family="Times,serif" font-size="14.00">UserService</text>
</g>
<!-- UserService&#45;&gt;UserModule -->
<g id="edge42" class="edge">
<title>UserService&#45;&gt;UserModule</title>
<path fill="none" stroke="black" d="M1946.12,-78.01C1946.12,-78.01 1946.12,-114.76 1946.12,-114.76"/>
<polygon fill="black" stroke="black" points="1942.62,-114.76 1946.12,-124.76 1949.62,-114.76 1942.62,-114.76"/>
</g>
<!-- UserPlanService -->
<g id="node32" class="node">
<title>UserPlanService</title>
<ellipse fill="#fdb462" stroke="black" cx="2073" cy="-66.8" rx="75.29" ry="18"/>
<text text-anchor="middle" x="2073" y="-62.6" font-family="Times,serif" font-size="14.00">UserPlanService</text>
</g>
<!-- UserPlanService&#45;&gt;UserPlanModule -->
<g id="edge44" class="edge">
<title>UserPlanService&#45;&gt;UserPlanModule</title>
<path fill="none" stroke="black" d="M2092.98,-84.43C2092.98,-84.43 2092.98,-114.74 2092.98,-114.74"/>
<polygon fill="black" stroke="black" points="2089.48,-114.74 2092.98,-124.74 2096.48,-114.74 2089.48,-114.74"/>
</g>
</g>
</svg>
